<?xml version="1.0" encoding="iso-8859-1"?>
<!-- Generator: Adobe Illustrator 18.0.0, SVG Export Plug-In . SVG Version: 6.00 Build 0)  -->
<!DOCTYPE svg PUBLIC "-//W3C//DTD SVG 1.1//EN" "http://www.w3.org/Graphics/SVG/1.1/DTD/svg11.dtd">
<svg version="1.1" id="Capa_1" xmlns="http://www.w3.org/2000/svg" xmlns:xlink="http://www.w3.org/1999/xlink" x="0px" y="0px"
	 viewBox="0 0 312.106 312.106" style="enable-background:new 0 0 312.106 312.106;" xml:space="preserve">
<g>
	<g>
		<polygon style="fill:#00FFFF;" points="25.784,151.402 25.784,151.402 25.784,151.402 		"/>
		<path d="M310.126,122.761c-4.373-15.342-16.194-33.858-35.131-55.034c-29.5-31.77-65.974-47.721-119.206-47.721
			c-48.887,0-92.327,16.76-121.486,47.478c-47.824,50.153-35.192,80.48-23.752,91.435c1.573,1.506,3.289,2.844,5.108,4.006v28.203
			c0,27.477,14.925,53.126,42.025,72.226c26.303,18.538,61.145,28.747,98.104,28.747c36.959,0,71.8-10.209,98.104-28.747
			c27.101-19.1,42.026-44.75,42.026-72.226v-27.692c0.022-0.012,0.04-0.019,0.063-0.031c3.968-2.099,7.443-5.013,10.051-8.428
			C310.441,149.2,314.731,138.922,310.126,122.761z M155.789,277.1c-67.098,0-122.021-36.475-124.996-82.079
			c2.607,8.145,7.434,16.192,18.359,21.584c0.145,0.072,0.293,0.139,0.442,0.201c17.139,7.116,28.854-0.096,38.269-5.891
			c7.738-4.763,12.832-7.59,19.719-5.874c0.218,0.055,0.438,0.1,0.661,0.134c4.094,0.639,5.562,5.626,7.936,16.852
			c3.31,15.649,8.311,39.299,39.295,40.653c0.108,0.005,0.55,0.004,0.662-0.001c31.856-1.422,36.564-25.239,39.68-40.999
			c2.347-11.871,3.765-15.919,7.534-16.501c0.228-0.035,0.452-0.08,0.676-0.136c6.887-1.721,11.98,1.11,19.717,5.874
			c9.416,5.798,21.133,13.01,38.277,5.892c0.15-0.063,0.297-0.129,0.442-0.201c10.948-5.401,15.797-14.191,18.394-22.864
			C278.834,239.944,223.512,277.1,155.789,277.1z M296.422,141.248c-1.898,8.054-10.323,10.051-10.571,10.142
			c-13.139,4.066-15.326,16.914-17.082,27.273c-2.067,12.197-3.965,19.955-12.729,24.389c-9.457,3.842-15.182,0.789-24.433-4.905
			c-7.89-4.856-17.689-10.892-30.894-7.732c-14.493,2.454-17.329,16.808-19.612,28.359c-3.415,17.275-6.475,27.945-25.303,28.907
			c-18.143-0.917-21.305-11.545-24.943-28.755c-2.456-11.612-5.507-26.042-19.955-28.514c-13.201-3.164-23.01,2.873-30.899,7.732
			c-9.25,5.694-14.972,8.745-24.427,4.903c-9.105-4.591-10.806-11.75-12.811-23.002c-1.729-9.707-3.884-21.773-15.956-28.166
			c-0.045-0.025-9.045-3.262-10.77-12.45c-1.532-8.161-0.196-26.885,31.824-61.814c0.033-0.036,0.062-0.077,0.094-0.114
			c0.02-0.021,0.041-0.039,0.06-0.062c22.544-26.172,63.84-42.431,107.774-42.431c48.604,0,86.778,14.947,107.494,42.089
			c0.048,0.063,0.102,0.116,0.151,0.176c0.075,0.093,0.143,0.187,0.224,0.276c2.155,2.407,25.404,34.833,5.093,54.991
			c-15.639,15.52-49.045,26.818-90.018,29.569c-37.443,2.513-74.296-2.605-91.693-12.74c-18.096-10.542-28.061-24.116-28.061-38.223
			C58.98,97.04,68.945,83.466,87.04,72.926c31.766-18.508,83.453-18.508,115.221,0c10.717,6.243,16.619,14.102,16.619,22.128
			c0,8.027-5.902,15.886-16.619,22.128c-19.246,11.215-51.77,11.217-71.021-0.001c-5.907-3.44-9.296-7.752-9.296-11.828
			s3.388-8.387,9.296-11.827c11.297-6.584,31.673-8.183,42.03-0.466c2.095,1.561,3.351,3.675,3.199,5.387
			c-0.104,1.162-0.951,2.15-2.523,2.935c-3.507,1.754-13.461,2.739-16.063-2.253c-1.914-3.676-6.445-5.103-10.116-3.187
			c-3.674,1.913-5.101,6.442-3.186,10.116c7.125,13.68,25.851,13.85,36.074,8.739c6.267-3.133,10.187-8.611,10.755-15.029
			c0.619-6.99-2.813-13.995-9.18-18.738c-16.089-11.984-42.914-9.572-58.542-0.467c-10.798,6.289-16.745,15.092-16.745,24.788
			c0,9.697,5.947,18.502,16.746,24.791c24.148,14.069,61.978,14.071,86.122,0c15.521-9.041,24.068-21.502,24.068-35.089
			s-8.548-26.048-24.068-35.089c-17.525-10.21-40.667-15.833-65.162-15.833s-47.636,5.623-65.16,15.833
			C56.591,73.304,43.98,91.48,43.979,111.144c0,19.666,12.61,37.844,35.51,51.185c16.771,9.771,46.98,15.418,80.262,15.418
			c6.569,0,13.259-0.221,19.987-0.673c45.22-3.036,81.575-15.449,99.744-34.056c5.828-5.968,11.246-14.003,13.225-24.225
			C297.782,130.127,297.388,137.147,296.422,141.248z"/>
	</g>
</g>
<g>
</g>
<g>
</g>
<g>
</g>
<g>
</g>
<g>
</g>
<g>
</g>
<g>
</g>
<g>
</g>
<g>
</g>
<g>
</g>
<g>
</g>
<g>
</g>
<g>
</g>
<g>
</g>
<g>
</g>
</svg>
